<svg width="71" height="59" viewBox="0 0 71 59" fill="none" xmlns="http://www.w3.org/2000/svg">
<path d="M35.8724 0C21.1162 0 9.15357 11.9626 9.15357 26.7188C9.15189 29.7848 9.67876 32.8282 10.711 35.7152C10.7105 35.7185 10.7105 35.7218 10.711 35.7251V51.3435C15.6864 55.6987 25.1797 58.6423 36.072 58.6423C46.2436 58.6423 55.1933 56.0739 60.3852 52.186V37.3774C60.4773 37.1707 60.5636 36.9626 60.6486 36.753C61.9372 33.5659 62.5968 30.1594 62.5912 26.7216C62.5912 11.9626 50.6299 0 35.8724 0ZM53.5169 32.9514C53.29 33.6694 53.0176 34.3721 52.7013 35.0554C51.2276 38.2828 48.8572 41.0185 45.8725 42.9368C42.8878 44.855 39.4147 45.8748 35.8667 45.8748C32.3188 45.8748 28.8456 44.855 25.8609 42.9368C22.8762 41.0185 20.5058 38.2828 19.0321 35.0554C17.9313 32.6434 17.3625 30.0228 17.3642 27.3715C17.3683 24.7055 17.9486 22.0719 19.0652 19.651C20.1818 17.2301 21.8083 15.0791 23.8335 13.3453C25.8587 11.6115 28.2346 10.3357 30.7986 9.6055C33.3627 8.87526 36.0542 8.70773 38.689 9.11439C41.3238 9.52106 43.8396 10.4923 46.0641 11.9616C48.2887 13.431 50.1694 15.3637 51.5776 17.6274C52.9857 19.8912 53.8881 22.4325 54.2228 25.0774C54.5575 27.7223 54.3167 30.4083 53.5169 32.9514Z" fill="#00923F"/>
<path d="M54.3736 27.3715C54.375 29.2644 54.0862 31.1462 53.517 32.9515C53.2903 33.6695 53.0179 34.3722 52.7014 35.0554C51.2277 38.2828 48.8573 41.0186 45.8726 42.9368C42.8879 44.855 39.4147 45.8748 35.8668 45.8748C32.3188 45.8748 28.8457 44.855 25.861 42.9368C22.8763 41.0186 20.5059 38.2828 19.0321 35.0554C18.7402 34.4169 18.4863 33.7616 18.2718 33.093C17.448 30.5498 17.185 27.8582 17.5011 25.2036C17.8172 22.549 18.7047 19.9944 20.1027 17.7157C21.5007 15.437 23.3758 13.4883 25.5991 12.0037C27.8223 10.5192 30.3409 9.53402 32.9814 9.1161C35.6219 8.69818 38.3216 8.85741 40.8946 9.58284C43.4677 10.3083 45.853 11.5827 47.8863 13.3183C49.9196 15.0539 51.5527 17.2095 52.6731 19.6368C53.7935 22.064 54.3746 24.7053 54.3764 27.3786L54.3736 27.3715Z" fill="white"/>
<path d="M16.4069 22.4344C16.3883 22.49 16.3588 22.5413 16.3201 22.5854C16.2814 22.6294 16.2343 22.6653 16.1815 22.6909C16.1288 22.7165 16.0714 22.7312 16.0129 22.7344C15.9544 22.7375 15.8958 22.7289 15.8406 22.7091L11.6411 21.2734C11.585 21.2554 11.533 21.2263 11.4883 21.1879C11.4435 21.1495 11.4069 21.1025 11.3805 21.0498C11.3542 20.997 11.3386 20.9395 11.3347 20.8807C11.3308 20.8218 11.3387 20.7628 11.358 20.7071L11.7827 19.4809C11.7926 19.4512 12.5062 17.3359 15.0392 18.1996C17.5722 19.0633 16.8416 21.1729 16.8331 21.2026L16.4069 22.4344ZM15.7089 21.7265L15.9822 20.9265C16.0509 20.6835 16.0548 20.4268 15.9935 20.1818C15.8703 19.6721 15.4441 19.294 14.7447 19.0491C14.0453 18.8042 13.4591 18.8523 13.0457 19.202C12.8598 19.3531 12.7139 19.5476 12.6209 19.7684L12.3491 20.574L15.7089 21.7265Z" fill="white"/>
<path d="M18.0451 17.3543L14.2223 15.0691C14.124 15.0078 14.0536 14.9103 14.0265 14.7977C13.9993 14.685 14.0175 14.5662 14.0771 14.4669C14.1367 14.3675 14.233 14.2955 14.3452 14.2665C14.4573 14.2374 14.5764 14.2536 14.6768 14.3116L18.4996 16.5968C18.5521 16.6251 18.5983 16.6638 18.6354 16.7105C18.6726 16.7571 18.6999 16.8109 18.7157 16.8684C18.7315 16.9259 18.7355 16.986 18.7275 17.0451C18.7194 17.1042 18.6995 17.161 18.6689 17.2122C18.6382 17.2634 18.5976 17.3079 18.5493 17.3429C18.501 17.378 18.4462 17.4029 18.388 17.4162C18.3299 17.4294 18.2696 17.4308 18.211 17.4201C18.1523 17.4095 18.0963 17.3871 18.0466 17.3543H18.0451Z" fill="white"/>
<path d="M21.8126 12.89L17.8355 12.3322L20.0612 14.4036C20.1463 14.4853 20.1957 14.5972 20.1989 14.7151C20.2021 14.833 20.1587 14.9475 20.0782 15.0336C19.9982 15.1191 19.8877 15.1695 19.7707 15.1737C19.6537 15.178 19.5398 15.1358 19.4538 15.0563L16.1973 12.0249C16.1281 11.9606 16.0813 11.8759 16.0637 11.7831C16.0461 11.6902 16.0586 11.5942 16.0993 11.509C16.1401 11.4238 16.2071 11.3539 16.2904 11.3094C16.3738 11.2649 16.4691 11.2482 16.5626 11.2618L20.5398 11.8196L18.314 9.74963C18.2314 9.66814 18.1839 9.55767 18.1814 9.44166C18.1789 9.32566 18.2217 9.21325 18.3008 9.12831C18.3798 9.04337 18.4889 8.99258 18.6047 8.98671C18.7206 8.98085 18.8342 9.02039 18.9214 9.09692L22.1779 12.1283C22.2624 12.2088 22.3121 12.3192 22.3163 12.4359C22.3205 12.5525 22.279 12.6662 22.2006 12.7527C22.1522 12.8057 22.0915 12.846 22.0238 12.87C21.9562 12.894 21.8836 12.9008 21.8126 12.89Z" fill="white"/>
<path d="M26.4102 9.58968L22.7445 7.95011L24.3019 10.5567C24.3588 10.6579 24.374 10.7773 24.3442 10.8895C24.3144 11.0017 24.2421 11.0979 24.1426 11.1576C24.043 11.2173 23.9241 11.2359 23.8111 11.2093C23.6981 11.1828 23.5999 11.1133 23.5374 11.0155L21.255 7.20395C21.2251 7.15368 21.2053 7.098 21.197 7.04009C21.1886 6.98218 21.1917 6.92319 21.2062 6.8665C21.2207 6.8098 21.2462 6.75652 21.2813 6.70971C21.3164 6.6629 21.3604 6.62348 21.4108 6.59371C21.4717 6.55809 21.5403 6.53769 21.6108 6.53424C21.6813 6.53079 21.7516 6.54439 21.8157 6.57389L25.4814 8.21204L23.9239 5.60544C23.8701 5.50442 23.8572 5.38657 23.8878 5.27628C23.9185 5.16599 23.9903 5.07171 24.0886 5.01295C24.1868 4.95419 24.3039 4.93546 24.4155 4.96061C24.5272 4.98577 24.6249 5.0529 24.6885 5.14811L26.9751 8.96245C27.0342 9.06318 27.0515 9.18309 27.0232 9.2964C26.9948 9.40971 26.9232 9.50739 26.8236 9.56844C26.7618 9.60572 26.6917 9.62716 26.6195 9.63087C26.5474 9.63457 26.4755 9.62043 26.4102 9.58968Z" fill="white"/>
<path d="M31.3389 2.96905C31.3607 3.05922 31.3553 3.15381 31.3234 3.2409L30.4314 5.64787L30.9581 7.6669C30.9823 7.77927 30.9622 7.89666 30.9019 7.99457C30.8417 8.09248 30.746 8.16334 30.6348 8.19238C30.5235 8.22142 30.4054 8.20639 30.305 8.15043C30.2046 8.09447 30.1296 8.00189 30.0958 7.89202L29.5691 5.87299L27.6152 4.20935C27.5452 4.15921 27.4951 4.08603 27.4736 4.00264C27.4456 3.91129 27.4478 3.81332 27.48 3.72335C27.5121 3.63337 27.5725 3.55619 27.6521 3.50334C27.7317 3.45048 27.8263 3.42477 27.9217 3.43003C28.0171 3.4353 28.1083 3.47127 28.1816 3.53257L29.7645 4.87481L30.4937 2.93507C30.5175 2.86641 30.5579 2.80467 30.6112 2.75529C30.6645 2.70591 30.7292 2.6704 30.7995 2.6519C30.8875 2.63084 30.9797 2.63676 31.0643 2.66889C31.1308 2.69325 31.1904 2.73323 31.2382 2.78547C31.286 2.8377 31.3206 2.90067 31.3389 2.96905Z" fill="white"/>
<path d="M38.3232 6.89949C37.9357 6.30712 37.7993 5.58507 37.9442 4.89218C38.089 4.19929 38.5032 3.59232 39.0956 3.20479C39.6879 2.81726 40.41 2.68093 41.1029 2.82577C41.7958 2.97062 42.4027 3.38478 42.7903 3.97715C42.8211 4.02429 42.8421 4.07722 42.8518 4.13272C42.8615 4.18823 42.8599 4.24513 42.8469 4.29996C42.8354 4.35749 42.8126 4.41216 42.7798 4.46078C42.747 4.50939 42.7048 4.55099 42.6557 4.58314C42.6076 4.61601 42.5533 4.63864 42.496 4.6496C42.4388 4.66056 42.3799 4.65962 42.323 4.64685C42.265 4.63692 42.2097 4.61474 42.1608 4.58178C42.112 4.54882 42.0708 4.50585 42.0398 4.45571C41.9107 4.26024 41.7441 4.09228 41.5497 3.96154C41.3553 3.8308 41.1369 3.73986 40.9072 3.69397C40.6788 3.64497 40.443 3.64202 40.2135 3.68529C39.984 3.72857 39.7654 3.8172 39.5706 3.946C39.3741 4.07281 39.2047 4.23747 39.0725 4.43038C38.9402 4.62328 38.8477 4.84058 38.8002 5.06961C38.7528 5.29864 38.7514 5.53482 38.7962 5.76438C38.8409 5.99395 38.9309 6.21232 39.0609 6.40677C39.187 6.60372 39.3514 6.77336 39.5442 6.90566C39.7371 7.03796 39.9545 7.13023 40.1836 7.177C40.5864 7.26032 41.0056 7.20179 41.3701 7.01135L41.5613 6.09386L40.4711 5.86733C40.4125 5.85656 40.3567 5.83406 40.3071 5.80119C40.2574 5.76831 40.2149 5.72574 40.1821 5.67602C40.1493 5.6263 40.127 5.57047 40.1163 5.51188C40.1056 5.45329 40.1069 5.39315 40.1201 5.33507C40.1333 5.277 40.1581 5.22219 40.193 5.17394C40.2279 5.12569 40.2722 5.08499 40.3232 5.0543C40.3743 5.0236 40.431 5.00355 40.49 4.99533C40.5489 4.98711 40.609 4.9909 40.6665 5.00648L42.1885 5.32222C42.2453 5.33402 42.2992 5.3569 42.3472 5.38954C42.3952 5.42218 42.4362 5.46396 42.4681 5.51247C42.4999 5.56099 42.5218 5.6153 42.5326 5.6723C42.5435 5.72929 42.543 5.78787 42.5312 5.84467L42.2126 7.38089C42.1878 7.49677 42.1187 7.59838 42.02 7.66406C41.4279 8.05115 40.7066 8.18802 40.0138 8.04474C39.3211 7.90146 38.7132 7.4897 38.3232 6.89949Z" fill="white"/>
<path d="M46.7815 10.0866C46.786 10.1449 46.7787 10.2035 46.7601 10.2589C46.7415 10.3143 46.712 10.3654 46.6733 10.4092C46.6347 10.453 46.5876 10.4887 46.5349 10.514C46.4823 10.5393 46.4251 10.5538 46.3667 10.5567C46.2859 10.5629 46.2049 10.5462 46.1331 10.5086C46.0662 10.4732 46.0093 10.4216 45.9675 10.3585C45.9257 10.2954 45.9004 10.2229 45.8938 10.1475L45.7692 8.3069L45.1108 7.95435L44.4808 9.13093C44.4234 9.23391 44.3279 9.31019 44.2147 9.3433C44.1016 9.37642 43.98 9.36371 43.8762 9.30791C43.7729 9.25239 43.6958 9.15817 43.6618 9.04591C43.6278 8.93365 43.6398 8.81249 43.695 8.709L45.7947 4.77573C45.8502 4.67241 45.9444 4.59532 46.0567 4.56135C46.169 4.52738 46.2901 4.5393 46.3936 4.5945L47.4612 5.16084C47.7223 5.31128 47.949 5.51483 48.1266 5.75834C48.5103 6.30203 48.5401 6.93917 48.2017 7.57065C48.0522 7.83251 47.8485 8.0594 47.6042 8.2361C47.335 8.42849 47.0133 8.53374 46.6824 8.53768L46.7815 10.0866ZM45.5313 7.16288L46.2025 7.52109C46.538 7.70091 46.8141 7.70232 47.0718 7.52959C47.2117 7.43252 47.329 7.30648 47.4159 7.16005C47.5957 6.82448 47.59 6.54414 47.4031 6.28079C47.3055 6.14827 47.181 6.03779 47.0378 5.95656L46.3667 5.59693L45.5313 7.16288Z" fill="white"/>
<path d="M50.6189 13.6277C50.5789 13.6705 50.5309 13.705 50.4775 13.7292C50.4241 13.7533 50.3665 13.7667 50.308 13.7686C50.2494 13.7704 50.1911 13.7607 50.1363 13.7399C50.0816 13.7191 50.0314 13.6877 49.9888 13.6475L48.1992 11.9966C48.1557 11.9573 48.1204 11.9098 48.0954 11.8568C48.0703 11.8038 48.056 11.7463 48.0532 11.6878C48.0505 11.6292 48.0593 11.5707 48.0793 11.5155C48.0992 11.4604 48.1299 11.4098 48.1694 11.3665L51.1909 8.10014C51.2309 8.05726 51.279 8.02274 51.3324 7.99858C51.3858 7.97442 51.4435 7.9611 51.5021 7.95939C51.5607 7.95768 51.6191 7.96761 51.6738 7.98861C51.7285 8.00961 51.7786 8.04126 51.821 8.08174L53.6106 9.73122C53.6554 9.77053 53.6918 9.81841 53.7177 9.87202C53.7436 9.92563 53.7586 9.98389 53.7616 10.0434C53.7647 10.1028 53.7558 10.1623 53.7355 10.2183C53.7152 10.2743 53.6838 10.3256 53.6434 10.3693C53.6029 10.413 53.5541 10.4481 53.4998 10.4727C53.4455 10.4972 53.3869 10.5106 53.3274 10.5121C53.2678 10.5136 53.2086 10.5031 53.1532 10.4814C53.0978 10.4596 53.0472 10.427 53.0046 10.3854L51.5392 9.03037L50.6345 10.0144L51.7757 11.0692C51.8618 11.1488 51.9129 11.2594 51.9175 11.3766C51.9222 11.4939 51.88 11.6081 51.8004 11.6943C51.7208 11.7805 51.6102 11.8315 51.493 11.8362C51.3758 11.8408 51.2615 11.7987 51.1753 11.7191L50.0341 10.6629L49.1294 11.6412L50.5948 12.9877C50.6392 13.0276 50.6752 13.0761 50.7005 13.1302C50.7259 13.1843 50.7401 13.2429 50.7423 13.3026C50.7446 13.3623 50.7348 13.4218 50.7136 13.4777C50.6924 13.5335 50.6602 13.5845 50.6189 13.6277Z" fill="white"/>
<path d="M53.5507 17.8087C53.501 17.84 53.4456 17.8611 53.3877 17.8709C53.3298 17.8807 53.2705 17.879 53.2133 17.8659C53.1561 17.8527 53.102 17.8284 53.0542 17.7943C53.0064 17.7602 52.9658 17.717 52.9348 17.6672L51.6124 15.6184C51.58 15.5695 51.5577 15.5148 51.5466 15.4573C51.5355 15.3998 51.5359 15.3406 51.5478 15.2833C51.5596 15.2259 51.5827 15.1714 51.6156 15.123C51.6486 15.0746 51.6908 15.0331 51.7398 15.0011L55.4762 12.587C55.5259 12.5556 55.5813 12.5343 55.6392 12.5244C55.6971 12.5145 55.7565 12.5162 55.8137 12.5293C55.871 12.5425 55.9251 12.5669 55.9729 12.6011C56.0207 12.6353 56.0612 12.6786 56.0922 12.7286L57.4146 14.776C57.4474 14.8251 57.4702 14.8804 57.4816 14.9384C57.4929 14.9965 57.4926 15.0562 57.4806 15.1141C57.4686 15.172 57.4452 15.227 57.4118 15.2758C57.3784 15.3246 57.3356 15.3663 57.286 15.3984C57.2363 15.4305 57.1807 15.4524 57.1225 15.4629C57.0643 15.4733 57.0046 15.4721 56.9468 15.4592C56.8891 15.4463 56.8345 15.4221 56.7862 15.3879C56.7379 15.3538 56.6969 15.3104 56.6656 15.2602L55.5824 13.5838L54.4625 14.3073L55.312 15.6127C55.3435 15.6615 55.3651 15.7159 55.3756 15.773C55.3861 15.83 55.3852 15.8886 55.3731 15.9453C55.3609 16.0021 55.3377 16.0558 55.3047 16.1036C55.2718 16.1514 55.2298 16.1922 55.181 16.2237C55.1323 16.2552 55.0779 16.2768 55.0208 16.2873C54.9637 16.2978 54.9052 16.2969 54.8484 16.2847C54.7917 16.2726 54.7379 16.2494 54.6902 16.2164C54.6424 16.1835 54.6016 16.1414 54.5701 16.0927L53.7206 14.7873L52.6006 15.5108L53.6838 17.1872C53.7165 17.2365 53.739 17.2919 53.75 17.3501C53.7611 17.4083 53.7604 17.4681 53.748 17.526C53.7356 17.5839 53.7117 17.6387 53.6779 17.6873C53.644 17.7358 53.6007 17.7771 53.5507 17.8087Z" fill="white"/>
<path d="M55.0856 22.491L57.5351 19.3082L54.6354 20.2214C54.5223 20.2551 54.4006 20.2429 54.2965 20.1875C54.1924 20.1322 54.1142 20.038 54.0789 19.9255C54.0436 19.8143 54.0535 19.6937 54.1065 19.5898C54.1595 19.4859 54.2514 19.4071 54.3621 19.3705L58.6097 18.0353C58.6999 18.0069 58.7968 18.008 58.8863 18.0385C58.9758 18.0691 59.0531 18.1275 59.1071 18.2051C59.161 18.2828 59.1887 18.3757 59.1861 18.4702C59.1835 18.5647 59.1507 18.6559 59.0925 18.7305L56.6459 21.9077L59.5456 20.9945C59.6561 20.9662 59.7733 20.9813 59.873 21.0368C59.9727 21.0922 60.0473 21.1837 60.0816 21.2925C60.1159 21.4014 60.1072 21.5192 60.0572 21.6217C60.0073 21.7243 59.92 21.8038 59.8132 21.844L55.5656 23.1792C55.4756 23.2066 55.3792 23.2047 55.2903 23.1739C55.2014 23.143 55.1246 23.0848 55.0709 23.0075C55.0172 22.9302 54.9895 22.8379 54.9916 22.7438C54.9937 22.6497 55.0257 22.5587 55.0828 22.484L55.0856 22.491Z" fill="white"/>
<path d="M21.9615 26.5248L21.9417 26.9822L19.5574 26.8745L19.5772 26.4186L21.9615 26.5248Z" fill="#00923F"/>
<path d="M22.3311 23.9494L20.6547 25.2435L22.0536 25.4955L21.9729 25.9443L19.6226 25.5196L19.6325 25.4714L21.3315 24.1816L19.9156 23.9253L19.9963 23.4765L22.3453 23.9012L22.3311 23.9494Z" fill="#00923F"/>
<path d="M21.1275 21.2663L20.9151 21.9077L22.7982 22.5363L22.6566 22.971L20.7735 22.341L20.5611 22.9979L20.176 22.8691L20.7551 21.1389L21.1275 21.2663Z" fill="#00923F"/>
<path d="M21.6075 20.2964L22.137 20.5796L22.675 19.5573L23.0417 19.7499L22.5037 20.7736L23.0007 21.0341L23.6067 19.8816L23.972 20.0727L23.1522 21.6301L21.0369 20.5187L21.8567 18.9612L22.2149 19.1496L21.6075 20.2964Z" fill="#00923F"/>
<path d="M24.4846 19.328L24.2014 19.6933L22.3027 18.2519L22.9569 17.3854C23.0248 17.2931 23.1099 17.2148 23.2075 17.1546C23.2962 17.0995 23.3956 17.0638 23.4991 17.0498C23.603 17.0363 23.7085 17.044 23.8092 17.0725C23.9183 17.1039 24.0205 17.1552 24.1108 17.224C24.2467 17.3225 24.3499 17.4596 24.4067 17.6176C24.4589 17.7673 24.4634 17.9296 24.4195 18.082C24.7536 18.082 25.0868 18.0853 25.4191 18.0919L25.092 18.5266C24.9362 18.5266 24.7791 18.5266 24.6233 18.5266L24.1519 18.5124L23.8786 18.8721L24.4846 19.328ZM23.5544 18.62L23.9338 18.1188C23.9596 18.0834 23.9788 18.0436 23.9904 18.0013C24.0048 17.9556 24.0091 17.9073 24.0032 17.8597C23.9959 17.81 23.9796 17.762 23.955 17.7181C23.9246 17.6659 23.8836 17.6206 23.8347 17.585C23.801 17.5607 23.7655 17.5389 23.7285 17.5199C23.6841 17.4981 23.6362 17.4842 23.5869 17.4788C23.5341 17.4735 23.4807 17.4808 23.4312 17.5001C23.3699 17.5271 23.3174 17.5708 23.2797 17.6261L22.9002 18.1273L23.5544 18.62Z" fill="#00923F"/>
<path d="M27.1207 16.4849L24.9969 16.5104L25.9611 17.5525L25.627 17.8626L24.0044 16.1112L24.0398 16.0786L26.1735 16.0701L25.1923 15.011L25.5279 14.701L27.1504 16.4524L27.1207 16.4849Z" fill="#00923F"/>
<path d="M27.3459 16.2838L27.0967 13.6135L27.1363 13.5894L29.4456 14.9501L29.0208 15.2163L28.6626 14.9982L27.7126 15.6028L27.7593 16.0177L27.3459 16.2838ZM27.6913 15.1511L28.2676 14.7859L27.5936 14.3611L27.6913 15.1511Z" fill="#00923F"/>
<path d="M30.0135 12.5417L29.3948 12.8249L30.2344 14.6245L29.821 14.8284L28.9814 13.0302L28.3598 13.3205L28.1885 12.9523L29.8422 12.1807L30.0135 12.5417Z" fill="#00923F"/>
<path d="M31.656 14.0921L31.2227 14.2337L30.4624 11.9683L30.8957 11.8267L31.656 14.0921Z" fill="#00923F"/>
<path d="M33.3042 13.724C33.1426 13.7573 32.9759 13.7573 32.8143 13.724C32.4999 13.6536 32.2243 13.4657 32.044 13.1987C31.9524 13.0605 31.8894 12.9054 31.8588 12.7424C31.8281 12.5795 31.8305 12.4121 31.8656 12.25C31.8995 12.0934 31.9634 11.9448 32.054 11.8125C32.1441 11.6808 32.2585 11.5675 32.3909 11.4784C32.5284 11.3865 32.6831 11.3233 32.8456 11.2926C33.0081 11.262 33.1752 11.2645 33.3367 11.3C33.6522 11.3695 33.9287 11.5582 34.1084 11.8267C34.2014 11.9631 34.265 12.1174 34.2953 12.2798C34.327 12.4432 34.3246 12.6114 34.2882 12.7739C34.219 13.0888 34.0308 13.3647 33.7629 13.5441C33.6243 13.6355 33.468 13.6968 33.3042 13.724ZM32.9247 11.7049C32.8225 11.725 32.7259 11.7671 32.6415 11.8281C32.5577 11.8876 32.4861 11.9625 32.4306 12.049C32.3745 12.1353 32.3351 12.2313 32.3145 12.3322C32.2932 12.4359 32.2932 12.5428 32.3145 12.6465C32.3332 12.7514 32.3737 12.8512 32.4334 12.9396C32.49 13.0265 32.5619 13.1023 32.6458 13.1633C32.7309 13.2248 32.827 13.2695 32.929 13.2949C33.0309 13.3205 33.1372 13.3234 33.2404 13.3034C33.3427 13.2844 33.4395 13.2428 33.5236 13.1817C33.6072 13.1213 33.6787 13.046 33.7346 12.9594C33.7894 12.8724 33.8287 12.7766 33.8507 12.6762C33.8733 12.5722 33.8748 12.4647 33.8551 12.3602C33.8354 12.2556 33.7949 12.156 33.736 12.0674C33.6236 11.8923 33.4491 11.7664 33.2475 11.7148C33.1421 11.6867 33.0316 11.6833 32.9247 11.7049Z" fill="#00923F"/>
<path d="M36.9144 13.4408L35.3485 12.015V13.4309H34.8926L34.9011 11.0437H34.9506L36.5152 12.4936V11.0508H36.9725L36.9626 13.4365L36.9144 13.4408Z" fill="#00923F"/>
<path d="M37.2117 13.4465L38.8541 11.3227L38.898 11.3312L39.6569 13.9024L39.1684 13.8103L39.0551 13.4082L37.9479 13.1987L37.7001 13.5342L37.2117 13.4465ZM38.241 12.8532L38.9107 12.9792L38.7111 12.2076L38.241 12.8532Z" fill="#00923F"/>
<path d="M41.5811 14.1869L41.4395 14.5678L39.8184 13.9916L40.6183 11.7403L41.0431 11.8932L40.379 13.7636L41.5811 14.1869Z" fill="#00923F"/>
<path d="M42.7903 14.8836L43.1966 14.7094C43.2512 14.8415 43.3166 14.9689 43.392 15.0903C43.4638 15.2072 43.5605 15.3068 43.6752 15.3819C43.7302 15.4193 43.791 15.4475 43.855 15.4655C43.9072 15.4792 43.9611 15.4849 44.015 15.4825C44.0602 15.479 44.1041 15.466 44.1439 15.4442C44.1781 15.4256 44.2073 15.3989 44.2288 15.3664C44.2535 15.3288 44.264 15.2836 44.2585 15.2389C44.2499 15.1914 44.2316 15.1461 44.2047 15.1059C44.171 15.0548 44.1321 15.0074 44.0886 14.9643C44.0405 14.9147 43.9909 14.8652 43.9371 14.8156L43.814 14.6995C43.7644 14.6547 43.7172 14.6074 43.6724 14.5579C43.6262 14.5031 43.585 14.4444 43.5492 14.3823C43.5125 14.3193 43.4857 14.251 43.4699 14.1799C43.454 14.1068 43.4516 14.0315 43.4628 13.9576C43.4775 13.8734 43.5098 13.7933 43.5577 13.7225C43.6204 13.6178 43.7105 13.5322 43.8182 13.4748C43.9115 13.4288 44.0144 13.406 44.1184 13.4082C44.2243 13.4113 44.3289 13.4334 44.427 13.4734C44.5258 13.5112 44.6207 13.5586 44.7102 13.6149C44.7853 13.6634 44.8568 13.7174 44.924 13.7764C44.9805 13.8267 45.0317 13.8827 45.0769 13.9434C45.123 13.9981 45.1634 14.0574 45.1973 14.1204C45.2312 14.1874 45.2652 14.2625 45.2992 14.3455L44.89 14.5098C44.8436 14.3944 44.7842 14.2847 44.713 14.1827C44.6474 14.0909 44.5647 14.0125 44.4695 13.9519C44.4314 13.9282 44.3911 13.9083 44.3492 13.8925C44.3037 13.874 44.2561 13.8611 44.2076 13.8542C44.1601 13.8482 44.1119 13.852 44.066 13.8656C44.0232 13.8781 43.9867 13.9064 43.964 13.9448C43.9511 13.9633 43.9423 13.9845 43.9384 14.0067C43.9345 14.029 43.9355 14.0519 43.9414 14.0737C43.956 14.1246 43.9795 14.1725 44.0108 14.2153C44.0471 14.2655 44.0874 14.3129 44.1311 14.3569L44.2656 14.4984C44.2987 14.5324 44.3383 14.5707 44.3845 14.6131C44.4342 14.6578 44.4815 14.7051 44.5261 14.7547C44.5723 14.8085 44.6135 14.8663 44.6493 14.9274C44.6868 14.9891 44.7136 15.0565 44.7286 15.1271C44.7435 15.2019 44.7435 15.2789 44.7286 15.3536C44.7103 15.445 44.6737 15.5317 44.621 15.6085C44.5638 15.7039 44.4853 15.7849 44.3916 15.8449C44.3063 15.8983 44.2089 15.9295 44.1085 15.9355C44.0016 15.9415 43.8945 15.9276 43.7927 15.8945C43.675 15.855 43.5627 15.8008 43.4586 15.7331C43.3651 15.6744 43.2774 15.6071 43.1966 15.532C43.0703 15.4103 42.9676 15.2663 42.8936 15.1073C42.8611 15.0464 42.8271 14.9699 42.7903 14.8836Z" fill="#00923F"/>
<path d="M46.541 17.452C46.4387 17.4869 46.3319 17.5074 46.2239 17.5129C46.1162 17.5184 46.0082 17.5103 45.9025 17.4888C45.6834 17.4439 45.4807 17.3401 45.3163 17.1886C45.1959 17.0771 45.0996 16.9422 45.0331 16.7922C44.8997 16.4985 44.8855 16.1645 44.9935 15.8605C45.0462 15.7026 45.1322 15.5578 45.2455 15.4358C45.3568 15.3151 45.4917 15.2187 45.642 15.1526C45.7874 15.0869 45.9441 15.0494 46.1035 15.0422C46.2632 15.0356 46.4226 15.0592 46.5736 15.1116C46.731 15.1655 46.8756 15.2513 46.9984 15.3636C47.0815 15.4403 47.1539 15.528 47.2136 15.6241C47.3288 15.8094 47.3928 16.0219 47.399 16.24C47.4038 16.3471 47.3933 16.4544 47.3679 16.5586L46.9431 16.3972C46.9532 16.334 46.956 16.2699 46.9516 16.206C46.9483 16.1403 46.9374 16.0752 46.9191 16.012C46.9013 15.9487 46.8756 15.8878 46.8426 15.8308C46.7541 15.6819 46.6132 15.5714 46.4476 15.5207C46.3503 15.4895 46.2479 15.4775 46.146 15.4853C46.0425 15.4926 45.9412 15.519 45.8473 15.5632C45.7514 15.6078 45.6653 15.6708 45.5938 15.7487C45.5213 15.8267 45.4654 15.9188 45.4296 16.0191C45.3949 16.1164 45.3772 16.2189 45.3772 16.3221C45.3789 16.4243 45.4 16.5252 45.4395 16.6195C45.4792 16.7174 45.5407 16.805 45.6193 16.8757C45.6683 16.9205 45.7236 16.9577 45.7835 16.9862C45.843 17.0143 45.9058 17.0347 45.9704 17.047C46.0352 17.06 46.1013 17.0652 46.1672 17.0626C46.2317 17.0596 46.2956 17.0506 46.3584 17.0357L46.541 17.452Z" fill="#00923F"/>
<path d="M49.5228 18.368L47.6156 19.8094L47.341 19.4441L48.0984 18.8707L47.3905 17.9305L46.633 18.4969L46.3569 18.1316L48.2641 16.6917L48.5388 17.0555L47.7133 17.6799L48.4213 18.6201L49.2467 17.9957L49.5228 18.368Z" fill="#00923F"/>
<path d="M48.3264 21.2309C48.2528 21.0835 48.2103 20.9225 48.2018 20.758C48.1938 20.5982 48.2159 20.4382 48.2669 20.2865C48.3182 20.1354 48.398 19.9956 48.5019 19.8745C48.6102 19.7483 48.7432 19.6457 48.8927 19.5729C49.0405 19.4991 49.202 19.4567 49.367 19.4483C49.6896 19.4293 50.0069 19.5364 50.2519 19.7471C50.3768 19.8554 50.4788 19.9876 50.5517 20.1359C50.6247 20.2843 50.6672 20.4457 50.6767 20.6108C50.6846 20.7706 50.6625 20.9305 50.6116 21.0822C50.5603 21.2337 50.48 21.3736 50.3751 21.4943C50.2681 21.6206 50.136 21.7233 49.9872 21.7958C49.8385 21.8702 49.676 21.9131 49.51 21.9219C49.3506 21.9298 49.1912 21.9077 49.04 21.8567C48.8884 21.8054 48.7481 21.7257 48.6265 21.6217C48.5008 21.5133 48.3987 21.3803 48.3264 21.2309ZM50.167 20.3248C50.1208 20.2301 50.054 20.1469 49.9716 20.0812C49.8917 20.0175 49.8004 19.9694 49.7026 19.9396C49.6033 19.9087 49.4991 19.8962 49.3953 19.9028C49.1815 19.9182 48.9822 20.0168 48.8403 20.1775C48.7721 20.2556 48.7184 20.3453 48.6817 20.4423C48.6463 20.5388 48.629 20.641 48.6308 20.7439C48.6326 20.8492 48.6583 20.9528 48.7058 21.0469C48.7508 21.1419 48.8172 21.2252 48.8998 21.2904C48.9806 21.3535 49.0723 21.4015 49.1702 21.432C49.2698 21.4615 49.3738 21.4735 49.4775 21.4674C49.5838 21.4605 49.6878 21.4325 49.7833 21.3852C49.8782 21.3387 49.9629 21.2737 50.0325 21.1941C50.1014 21.116 50.1551 21.0257 50.1911 20.9279C50.2268 20.832 50.2437 20.7301 50.2406 20.6278C50.2402 20.5227 50.216 20.4191 50.1698 20.3248H50.167Z" fill="#00923F"/>
<path d="M49.2822 23.7639C49.2386 23.6044 49.2284 23.4376 49.2524 23.274C49.2978 22.9549 49.464 22.6655 49.7168 22.4655C49.8474 22.3624 49.9977 22.2872 50.1586 22.2447C50.3181 22.201 50.4849 22.1909 50.6485 22.2149C50.8069 22.2368 50.9597 22.2887 51.0987 22.3678C51.2376 22.4474 51.3598 22.5532 51.4584 22.6793C51.5604 22.8091 51.6352 22.9581 51.6785 23.1174C51.7218 23.2768 51.7327 23.4431 51.7104 23.6067C51.6653 23.9262 51.4983 24.2159 51.2446 24.4152C51.1148 24.5176 50.9654 24.5923 50.8056 24.6346C50.6454 24.6793 50.4775 24.6899 50.3129 24.6658C50.1548 24.6434 50.0025 24.5911 49.8641 24.5115C49.7258 24.4316 49.6039 24.3264 49.5045 24.2014C49.4012 24.0723 49.3255 23.9234 49.2822 23.7639ZM51.2644 23.2301C51.2392 23.1262 51.1908 23.0294 51.1228 22.9469C51.0564 22.8688 50.9763 22.8035 50.8863 22.7544C50.7952 22.7056 50.6958 22.674 50.5933 22.6609C50.4882 22.6468 50.3814 22.6536 50.2789 22.6808C50.1759 22.7081 50.0795 22.7563 49.9958 22.8223C49.9134 22.8865 49.843 22.9646 49.7876 23.0531C49.7344 23.14 49.6979 23.236 49.68 23.3363C49.6607 23.4403 49.6656 23.5474 49.6942 23.6492C49.7201 23.7507 49.7685 23.8451 49.8358 23.9253C49.902 24.0041 49.9828 24.0695 50.0736 24.1179C50.1656 24.1663 50.2652 24.1984 50.3681 24.2127C50.4732 24.2264 50.58 24.2192 50.6823 24.1915C50.7846 24.1638 50.8804 24.1162 50.9642 24.0513C51.0465 23.9877 51.117 23.91 51.1724 23.8219C51.2244 23.7347 51.2604 23.6387 51.2785 23.5388C51.2971 23.4362 51.2927 23.3308 51.2658 23.2301H51.2644Z" fill="#00923F"/>
<path d="M50.2407 27.0048L49.8386 27.0416L49.6758 25.3298L52.0559 25.1047L52.0983 25.5592L50.1161 25.7461L50.2407 27.0048Z" fill="#00923F"/>
<path d="M52.7013 35.0554C51.2275 38.2828 48.8571 41.0185 45.8724 42.9368C42.8877 44.855 39.4146 45.8748 35.8666 45.8748C32.3187 45.8748 28.8455 44.855 25.8608 42.9368C22.8761 41.0185 20.5057 38.2828 19.032 35.0554H52.7013Z" fill="#99CC33"/>
<path d="M10.7054 39.6683V52.2001L0.213796 54.0521L0 54.0025V45.1166L10.7054 39.6683Z" fill="#99CC33"/>
<path d="M10.7054 52.2001V56.5398L0.213867 54.0521L10.7054 52.2001Z" fill="#00923F"/>
<path d="M60.2944 39.6683V52.2001L70.786 54.0521L70.9998 54.0025V45.1166L60.2944 39.6683Z" fill="#99CC33"/>
<path d="M60.2944 52.2001V56.5398L70.786 54.0521L60.2944 52.2001Z" fill="#00923F"/>
<path d="M16.3306 49.5072L16.0262 49.9744L16.9097 50.5492L16.6987 50.8749L15.8152 50.2986L15.532 50.739L16.5231 51.386L16.3136 51.7088L14.9685 50.8324L16.1862 48.9635L17.5312 49.8385L17.3245 50.1556L16.3306 49.5072Z" fill="white"/>
<path d="M17.9108 51.2756L17.6376 49.9064L18.1104 50.1273L18.2832 51.0929L19.1327 50.6073L19.6028 50.8267L18.3809 51.4993L18.6456 52.8415L18.1742 52.6206L18.0128 51.6805L17.1873 52.152L16.7158 51.9311L17.9108 51.2756Z" fill="white"/>
<path d="M20.9762 53.0893C20.902 53.1567 20.8191 53.2138 20.7298 53.2592C20.6399 53.3032 20.5448 53.3356 20.4466 53.3555C20.3486 53.3769 20.248 53.384 20.1479 53.3767C19.8928 53.3608 19.6514 53.2561 19.4655 53.0808C19.3592 52.9795 19.2732 52.8589 19.212 52.7254C19.1507 52.5917 19.1152 52.4476 19.1072 52.3007C19.0987 52.1461 19.121 51.9915 19.1728 51.8456C19.2245 51.6998 19.3048 51.5657 19.4088 51.4511C19.5087 51.3419 19.6283 51.2525 19.7614 51.1878C19.8944 51.1233 20.0386 51.0848 20.1861 51.0745C20.4411 51.058 20.6938 51.1305 20.9011 51.2798C20.9827 51.3381 21.0561 51.4072 21.1192 51.4851C21.1813 51.5626 21.2332 51.6478 21.2735 51.7386C21.3144 51.8287 21.343 51.924 21.3585 52.0217L20.9337 52.0416C20.9198 51.9839 20.8998 51.9279 20.8742 51.8745C20.8486 51.82 20.8168 51.7687 20.7794 51.7216C20.7422 51.6736 20.6989 51.6307 20.6505 51.5941C20.6026 51.5571 20.5491 51.5279 20.492 51.5078C20.4014 51.475 20.3046 51.463 20.2088 51.4724C20.1155 51.4832 20.0249 51.5105 19.9412 51.5531C19.8569 51.5987 19.7812 51.6586 19.7175 51.7301C19.6514 51.8037 19.6 51.8892 19.566 51.9821C19.5326 52.0756 19.5177 52.1746 19.5221 52.2738C19.5251 52.3712 19.5462 52.4672 19.5844 52.5569C19.6199 52.6441 19.6729 52.7232 19.7401 52.7891C19.807 52.8586 19.8895 52.911 19.9808 52.942C20.0376 52.9629 20.0973 52.9748 20.1578 52.9774C20.2182 52.9789 20.2786 52.9732 20.3376 52.9605C20.3969 52.9477 20.4545 52.9277 20.5089 52.901C20.5628 52.8749 20.6141 52.8436 20.6619 52.8075L20.9762 53.0893Z" fill="white"/>
<path d="M22.096 52.0486L21.9445 52.5852L22.9597 52.8684L22.8549 53.2422L21.8411 52.959L21.6996 53.4645L22.8422 53.7845L22.7388 54.1554L21.1941 53.7222L21.7958 51.5743L23.342 52.0076L23.2386 52.3714L22.096 52.0486Z" fill="white"/>
<path d="M24.8372 54.2475L24.7537 54.617L23.2231 54.2701L23.7145 52.0954L24.1208 52.1874L23.713 53.994L24.8372 54.2475Z" fill="white"/>
<path d="M26.6777 54.5845L26.6097 54.9568L25.0664 54.6737L25.4657 52.4791L25.8763 52.5541L25.5436 54.3763L26.6777 54.5845Z" fill="white"/>
<path d="M27.5951 53.2281L27.5173 53.7802L28.5608 53.9218L28.507 54.3041L27.4635 54.1625L27.3898 54.6822L28.5664 54.8478L28.5126 55.2287L26.9226 55.0036L27.2355 52.7948L28.8241 53.0199L28.7703 53.3937L27.5951 53.2281Z" fill="white"/>
<path d="M30.7879 55.4637L29.4953 54.0054L29.3636 55.3235L28.9487 55.2825L29.1696 53.0667H29.2135L30.5048 54.5491L30.6393 53.2082L31.0541 53.2493L30.8332 55.4665L30.7879 55.4637Z" fill="white"/>
<path d="M33.3125 55.0772C33.26 55.1623 33.1962 55.24 33.1228 55.308C33.0498 55.3757 32.9685 55.4337 32.8807 55.4807C32.7916 55.5281 32.6963 55.5629 32.5975 55.5841C32.3478 55.6394 32.0865 55.6064 31.8584 55.4906C31.7282 55.4235 31.6119 55.3322 31.5158 55.2216C31.4188 55.1097 31.3439 54.9805 31.2949 54.8407C31.2445 54.6954 31.2233 54.5415 31.2326 54.3879C31.2418 54.2344 31.2813 54.0842 31.3487 53.9459C31.4139 53.8131 31.5038 53.6939 31.6135 53.5948C31.7217 53.4957 31.8482 53.4187 31.9859 53.3682C32.2266 53.2818 32.4899 53.2818 32.7306 53.3682C32.9194 53.4343 33.0867 53.5503 33.2148 53.7038C33.2799 53.779 33.3342 53.8628 33.3763 53.953L32.9784 54.0946C32.9485 54.0442 32.9139 53.9968 32.875 53.953C32.8347 53.9077 32.7896 53.8669 32.7405 53.8312C32.6911 53.796 32.6374 53.7675 32.5805 53.7463C32.5242 53.7249 32.4651 53.712 32.405 53.708C32.3084 53.7018 32.2116 53.7173 32.1218 53.7533C32.0345 53.7891 31.9548 53.8409 31.8868 53.9063C31.8188 53.9738 31.7628 54.0523 31.7211 54.1385C31.6787 54.2273 31.6537 54.3234 31.6475 54.4216C31.6412 54.521 31.6547 54.6206 31.6871 54.7147C31.7193 54.8054 31.7673 54.8898 31.8287 54.9639C31.8881 55.0363 31.9607 55.0968 32.0425 55.1423C32.1268 55.1894 32.2208 55.2166 32.3172 55.2216C32.3776 55.2252 32.4383 55.2195 32.497 55.2046C32.5559 55.19 32.6125 55.1676 32.6655 55.1381C32.7166 55.1088 32.7641 55.0736 32.8071 55.0333C32.8512 54.9932 32.8915 54.9492 32.9274 54.9016L33.3125 55.0772Z" fill="white"/>
<path d="M34.0419 53.7887L34.0292 54.3466L35.0826 54.3721L35.0726 54.76L34.0192 54.7331L34.0065 55.2584L35.1944 55.2867L35.1845 55.6704L33.5874 55.6322L33.6412 53.4022L35.2454 53.4404L35.2369 53.8185L34.0419 53.7887Z" fill="white"/>
<path d="M38.0358 55.6775L37.7526 55.3943C37.6929 55.4467 37.629 55.494 37.5615 55.5359C37.5079 55.5706 37.4515 55.6009 37.393 55.6265C37.3475 55.6468 37.3001 55.6625 37.2514 55.6732C37.2104 55.6817 37.1764 55.686 37.1509 55.6888C37.0694 55.6961 36.9872 55.688 36.9088 55.6647C36.7592 55.6211 36.6317 55.5225 36.552 55.3886C36.5108 55.3198 36.4843 55.2431 36.4741 55.1635C36.4549 55.0547 36.4692 54.9426 36.5152 54.8421C36.5636 54.7444 36.6304 54.6569 36.712 54.5844L36.7955 54.5165L36.8819 54.4513C36.8144 54.3735 36.7613 54.2843 36.7247 54.188C36.6923 54.0973 36.6816 54.0003 36.6936 53.9048C36.6994 53.8224 36.7241 53.7425 36.7658 53.6712C36.8071 53.6015 36.862 53.5408 36.9272 53.4928C36.9955 53.4446 37.0732 53.4113 37.1551 53.3951C37.2372 53.3766 37.3223 53.3766 37.4043 53.3951C37.4863 53.416 37.5627 53.4547 37.628 53.5084C37.6932 53.5622 37.7454 53.6299 37.781 53.7066C37.8186 53.7812 37.838 53.8637 37.8376 53.9473C37.838 54.0324 37.8197 54.1165 37.7838 54.1936C37.7533 54.2607 37.7089 54.3206 37.6535 54.3692C37.5919 54.421 37.5266 54.4684 37.4581 54.5108L37.7272 54.7812C37.7965 54.675 37.8475 54.5915 37.8801 54.5278C37.9126 54.4641 37.9296 54.4301 37.9296 54.4287L38.2949 54.6L38.2326 54.7203C38.1785 54.8221 38.119 54.9209 38.0542 55.0163L38.0344 55.0446L38.0174 55.0729L38.3445 55.4127L38.0358 55.6775ZM37.0985 54.7317C37.0479 54.7601 37.0004 54.7938 36.9569 54.8322C36.946 54.8416 36.936 54.852 36.9272 54.8634C36.9125 54.88 36.9001 54.8986 36.8904 54.9186C36.8781 54.9446 36.8696 54.9723 36.8649 55.0007C36.8585 55.0363 36.8585 55.0727 36.8649 55.1083C36.8739 55.1643 36.9037 55.2149 36.9484 55.2499C36.9962 55.2899 37.0561 55.3123 37.1183 55.3136C37.162 55.3144 37.2055 55.3081 37.2472 55.2952C37.2829 55.2832 37.3171 55.267 37.3491 55.2471C37.3779 55.2293 37.4049 55.2089 37.4298 55.1862C37.4518 55.1682 37.4722 55.1483 37.4907 55.1267L37.0985 54.7317ZM37.0702 53.9246C37.0666 53.9865 37.0782 54.0482 37.1042 54.1044C37.1278 54.1605 37.1614 54.2119 37.2033 54.2559C37.2302 54.239 37.2599 54.2191 37.2897 54.1965C37.3175 54.1755 37.3435 54.1523 37.3675 54.1271C37.4254 54.0645 37.4564 53.9816 37.4539 53.8963C37.4545 53.8726 37.4497 53.8491 37.4399 53.8275C37.43 53.806 37.4155 53.7869 37.3973 53.7717C37.3627 53.7415 37.3186 53.7245 37.2727 53.7236C37.2248 53.724 37.1784 53.7404 37.141 53.7703C37.1187 53.7894 37.1009 53.813 37.0886 53.8397C37.0764 53.8663 37.0701 53.8953 37.0702 53.9246Z" fill="white"/>
<path d="M40.5162 55.4963L39.6596 55.5628L39.4883 53.3399L40.3449 53.2733C40.6257 53.2409 40.9079 53.3203 41.1307 53.4942C41.2454 53.5857 41.3375 53.7025 41.3997 53.8354C41.5329 54.1337 41.559 54.4688 41.4733 54.7841C41.4333 54.9186 41.3647 55.0428 41.272 55.1481C41.1794 55.2535 41.065 55.3375 40.9367 55.3943C40.8034 55.452 40.6612 55.4865 40.5162 55.4963ZM40.0461 55.1536L40.4879 55.1196C40.5672 55.1135 40.6456 55.0983 40.7215 55.0743C40.7988 55.0487 40.8695 55.0062 40.9282 54.9497C40.9925 54.8825 41.0409 54.8017 41.0698 54.7133C41.1064 54.5908 41.1175 54.4622 41.1024 54.3352C41.0971 54.2068 41.0663 54.0807 41.0118 53.9643C40.9703 53.881 40.9096 53.8087 40.8348 53.7533C40.7672 53.7073 40.6904 53.6769 40.6096 53.6641C40.5324 53.6518 40.454 53.6484 40.376 53.6542L39.9329 53.6882L40.0461 55.1536Z" fill="white"/>
<path d="M42.418 55.3221L42.0031 55.366L41.7695 53.1502L42.183 53.1063L42.418 55.3221Z" fill="white"/>
<path d="M42.8356 54.9851L43.014 54.617C43.1299 54.678 43.2506 54.7292 43.375 54.7699C43.495 54.8093 43.6223 54.8209 43.7474 54.8039C43.8083 54.798 43.8676 54.7817 43.923 54.7558C43.968 54.735 44.0092 54.7068 44.0447 54.6722C44.0748 54.643 44.0976 54.6071 44.1113 54.5675C44.1238 54.5331 44.1281 54.4962 44.124 54.4599C44.1195 54.4184 44.0998 54.3801 44.0688 54.3523C44.035 54.3235 43.9954 54.3023 43.9527 54.29C43.899 54.2749 43.844 54.2644 43.7885 54.2588L43.5959 54.2447L43.4416 54.2362C43.3803 54.2329 43.3193 54.2259 43.2589 54.2149C43.1942 54.2041 43.1307 54.187 43.0692 54.1639C43.006 54.1412 42.9468 54.1087 42.8937 54.0677C42.8367 54.0261 42.7885 53.9737 42.7521 53.9133C42.7114 53.8444 42.6859 53.7677 42.677 53.6882C42.6581 53.5767 42.6698 53.4622 42.711 53.3569C42.7477 53.2675 42.8061 53.1887 42.8809 53.1275C42.9556 53.0661 43.0404 53.0182 43.1315 52.9859C43.2235 52.9541 43.3183 52.9314 43.4147 52.918C43.4958 52.9067 43.5777 52.902 43.6596 52.9038C43.7288 52.906 43.7975 52.9151 43.8649 52.9307C43.9302 52.9453 43.9938 52.9667 44.0547 52.9944C44.117 53.0213 44.1849 53.0553 44.2585 53.0936L44.0731 53.4574C43.9727 53.403 43.8662 53.3608 43.7559 53.3314C43.6563 53.3047 43.5522 53.2984 43.4501 53.313C43.4097 53.3199 43.37 53.3298 43.3312 53.3427C43.2877 53.3579 43.2464 53.3783 43.208 53.4036C43.1728 53.4279 43.1425 53.4587 43.1188 53.4942C43.096 53.5294 43.0874 53.5719 43.0947 53.6132C43.097 53.6341 43.1036 53.6544 43.1141 53.6726C43.1245 53.6909 43.1387 53.7068 43.1556 53.7194C43.1955 53.7468 43.2401 53.7665 43.2873 53.7774C43.3429 53.7922 43.3998 53.8022 43.4572 53.8071L43.6327 53.827C43.6766 53.827 43.7262 53.8355 43.7828 53.8369C43.8431 53.8402 43.9031 53.8468 43.9626 53.8567C44.0268 53.8665 44.0899 53.8827 44.1509 53.9048C44.2138 53.9268 44.2726 53.9588 44.3251 53.9997C44.382 54.0436 44.4301 54.0979 44.4667 54.1597C44.5068 54.2366 44.5327 54.32 44.5431 54.4061C44.5591 54.5087 44.5524 54.6136 44.5233 54.7133C44.4967 54.8015 44.448 54.8815 44.3817 54.9455C44.311 55.0136 44.2285 55.0683 44.1382 55.1069C44.0335 55.15 43.9235 55.179 43.8111 55.1933C43.7118 55.208 43.6112 55.2128 43.511 55.2074C43.4287 55.2027 43.3472 55.1899 43.2674 55.1692C43.1936 55.1499 43.1216 55.1243 43.0522 55.0928C42.98 55.0602 42.9092 55.0248 42.8356 54.9851Z" fill="white"/>
<path d="M46.8963 54.0861C46.8659 54.1815 46.822 54.2721 46.766 54.3551C46.7114 54.4378 46.6462 54.513 46.572 54.5788C46.4977 54.6458 46.4143 54.702 46.3243 54.7459C46.2316 54.7916 46.1329 54.824 46.0312 54.8421C45.8828 54.8692 45.7304 54.8648 45.5838 54.8294C45.4413 54.7948 45.3067 54.7333 45.1873 54.6482C45.067 54.5622 44.9642 54.4541 44.8843 54.3296C44.8005 54.2008 44.7432 54.0566 44.716 53.9053C44.6887 53.754 44.6921 53.5989 44.7258 53.4489C44.757 53.3042 44.8156 53.1667 44.8985 53.044C44.9808 52.9223 45.0861 52.8179 45.2086 52.7367C45.4207 52.5939 45.6763 52.5302 45.9307 52.5569C46.0301 52.5668 46.1278 52.5901 46.2209 52.6263C46.3136 52.6619 46.4012 52.7095 46.4814 52.7679C46.5621 52.8257 46.6345 52.8943 46.6966 52.9718L46.3299 53.1983C46.2894 53.1553 46.2443 53.1168 46.1954 53.0836C46.0966 53.0135 45.9826 52.9679 45.8627 52.9505C45.8026 52.9413 45.7415 52.9413 45.6815 52.9505C45.5863 52.9665 45.4962 53.0043 45.4181 53.061C45.3422 53.1158 45.2773 53.1845 45.227 53.2634C45.1753 53.3448 45.1393 53.435 45.1208 53.5296C45.1017 53.6264 45.1017 53.726 45.1208 53.8227C45.1381 53.9205 45.1746 54.0139 45.2284 54.0974C45.2791 54.1785 45.3438 54.2499 45.4195 54.3084C45.4945 54.3649 45.5796 54.4067 45.6701 54.4315C45.7624 54.4566 45.8591 54.461 45.9533 54.4443C46.0127 54.4332 46.07 54.4132 46.1232 54.3848C46.1769 54.3568 46.2269 54.3221 46.2719 54.2815C46.3162 54.2384 46.356 54.1909 46.3908 54.1399C46.424 54.0903 46.4525 54.0377 46.4758 53.9827L46.8963 54.0861Z" fill="white"/>
<path d="M47.8166 54.4358L47.4088 54.525L46.9331 52.3488L47.3395 52.2596L47.8166 54.4358Z" fill="white"/>
<path d="M48.7684 51.9084C48.869 51.8815 48.9742 51.8762 49.077 51.8929C49.1773 51.9074 49.2736 51.942 49.3602 51.9948C49.4465 52.047 49.5219 52.1152 49.5825 52.1959C49.6479 52.28 49.6961 52.3762 49.7241 52.479C49.7509 52.5796 49.7591 52.6842 49.7481 52.7877C49.7383 52.8852 49.7074 52.9794 49.6575 53.0638C49.604 53.1542 49.5309 53.2316 49.4437 53.2903C49.3398 53.3603 49.2243 53.4111 49.1025 53.4404L48.6338 53.5622L48.8009 54.205L48.3974 54.3097L47.8311 52.1505L48.7684 51.9084ZM49.0657 53.0525C49.1176 53.039 49.1659 53.0143 49.2073 52.9802C49.2451 52.9509 49.2748 52.9124 49.2936 52.8684C49.3133 52.8237 49.3239 52.7756 49.3248 52.7268C49.3257 52.6791 49.3199 52.6314 49.3078 52.5852C49.295 52.5347 49.2734 52.4868 49.2441 52.4436C49.2147 52.4013 49.1778 52.3648 49.1351 52.336C49.0924 52.3064 49.0443 52.2857 48.9935 52.2751C48.9351 52.264 48.8749 52.2669 48.8179 52.2836L48.3252 52.4111L48.5277 53.1898L49.0657 53.0525Z" fill="white"/>
<path d="M51.7938 52.9265L51.9085 53.2861L50.4161 53.7647L49.728 51.6409L50.1245 51.5134L50.6908 53.2762L51.7938 52.9265Z" fill="white"/>
<path d="M52.6618 52.9945L52.2725 53.136L51.4824 51.0533L51.8732 50.9046L52.6618 52.9945Z" fill="white"/>
<path d="M54.9355 51.9892L53.0764 51.3973L53.6428 52.5966L53.2676 52.7736L52.3218 50.7574L52.3628 50.7375L54.2247 51.3577L53.6584 50.1372L54.035 49.9602L54.9808 51.9778L54.9355 51.9892Z" fill="white"/>
<path d="M54.8948 49.8639L55.2021 50.3298L56.0813 49.7493L56.2951 50.0721L55.4159 50.6526L55.699 51.0901L56.6901 50.4359L56.9011 50.7559L55.5673 51.6409L54.3384 49.779L55.675 48.8941L55.8831 49.2098L54.8948 49.8639Z" fill="white"/>
<path d="M39.4064 21.1431C40.7725 21.1431 41.8799 19.8918 41.8799 18.3482C41.8799 16.8046 40.7725 15.5533 39.4064 15.5533C38.0403 15.5533 36.9329 16.8046 36.9329 18.3482C36.9329 19.8918 38.0403 21.1431 39.4064 21.1431Z" fill="#00923F"/>
<path d="M46.0071 35.9545C45.5285 34.8416 44.0249 35.1446 43.9569 35.1588C43.9668 35.1418 43.9796 34.9747 43.8847 33.6664C45.1901 32.1968 45.891 30.5643 45.891 28.1177C45.5101 25.0028 41.5018 23.0021 41.5018 23.0021H36.1611V24.8003H41.557L41.6335 29.256L41.5329 29.382H44.7073V31.4067H40.0604V34.9464H37.8418V34.9053L37.7611 35.0384V29.1456H39.303V28.1177H37.7611V26.8321H36.5406V28.1177H35.003V29.1456H36.5448V35.0285L33.7669 35.0044L32.8565 33.0477H31.5298L31.5638 36.6638L30.7554 37.8178V46.1898H34.0444V38.3317L35.187 37.0022L38.4053 36.981V45.8358H40.505V41.5018C40.505 41.5018 44.1664 38.4478 44.8942 37.9806C45.622 37.5133 46.497 37.0942 46.0071 35.9545ZM42.837 34.06H40.808V32.0354H42.8313L42.837 34.06Z" fill="#00923F"/>
</svg>
